<mxfile host="Electron" modified="2023-09-24T16:28:24.121Z" agent="Mozilla/5.0 (Windows NT 10.0; Win64; x64) AppleWebKit/537.36 (KHTML, like Gecko) draw.io/21.7.5 Chrome/114.0.5735.289 Electron/25.8.1 Safari/537.36" etag="KCWAIxV-YxkTLa7ETr45" version="21.7.5" type="device">
  <diagram name="Page-1" id="EBqSy2FxNwQh-ZfcQGXa">
    <mxGraphModel dx="864" dy="508" grid="1" gridSize="10" guides="1" tooltips="1" connect="1" arrows="1" fold="1" page="1" pageScale="1" pageWidth="850" pageHeight="1100" math="0" shadow="0">
      <root>
        <mxCell id="0" />
        <mxCell id="1" parent="0" />
        <mxCell id="qGZgHf13u7nG4rTvngTi-1" value="" style="shape=actor;whiteSpace=wrap;html=1;" vertex="1" parent="1">
          <mxGeometry x="780" y="160" width="45" height="60" as="geometry" />
        </mxCell>
        <mxCell id="qGZgHf13u7nG4rTvngTi-19" style="edgeStyle=orthogonalEdgeStyle;rounded=0;orthogonalLoop=1;jettySize=auto;html=1;entryX=0;entryY=0.75;entryDx=0;entryDy=0;" edge="1" parent="1" source="qGZgHf13u7nG4rTvngTi-3" target="qGZgHf13u7nG4rTvngTi-1">
          <mxGeometry relative="1" as="geometry" />
        </mxCell>
        <mxCell id="qGZgHf13u7nG4rTvngTi-3" value="&lt;font style=&quot;font-size: 9px;&quot;&gt;Refresh&amp;nbsp; &amp;nbsp;Transactions&lt;/font&gt;" style="verticalLabelPosition=middle;verticalAlign=middle;html=1;shape=trapezoid;perimeter=trapezoidPerimeter;whiteSpace=wrap;size=0.23;arcSize=10;flipV=1;labelPosition=center;align=center;fillColor=#ffcccc;strokeColor=#36393d;" vertex="1" parent="1">
          <mxGeometry x="580" y="189" width="90" height="40" as="geometry" />
        </mxCell>
        <mxCell id="qGZgHf13u7nG4rTvngTi-20" style="edgeStyle=orthogonalEdgeStyle;rounded=0;orthogonalLoop=1;jettySize=auto;html=1;entryX=0;entryY=0.75;entryDx=0;entryDy=0;" edge="1" parent="1" source="qGZgHf13u7nG4rTvngTi-9" target="qGZgHf13u7nG4rTvngTi-1">
          <mxGeometry relative="1" as="geometry" />
        </mxCell>
        <mxCell id="qGZgHf13u7nG4rTvngTi-9" value="&lt;font style=&quot;font-size: 9px;&quot;&gt;Add Accounts&lt;/font&gt;" style="verticalLabelPosition=middle;verticalAlign=middle;html=1;shape=trapezoid;perimeter=trapezoidPerimeter;whiteSpace=wrap;size=0.23;arcSize=10;flipV=1;labelPosition=center;align=center;fillColor=#ffcccc;strokeColor=#36393d;" vertex="1" parent="1">
          <mxGeometry x="580" y="239" width="90" height="40" as="geometry" />
        </mxCell>
        <mxCell id="qGZgHf13u7nG4rTvngTi-18" style="edgeStyle=orthogonalEdgeStyle;rounded=0;orthogonalLoop=1;jettySize=auto;html=1;entryX=0;entryY=0.75;entryDx=0;entryDy=0;" edge="1" parent="1" source="qGZgHf13u7nG4rTvngTi-10" target="qGZgHf13u7nG4rTvngTi-1">
          <mxGeometry relative="1" as="geometry" />
        </mxCell>
        <mxCell id="qGZgHf13u7nG4rTvngTi-10" value="&lt;font style=&quot;font-size: 9px;&quot;&gt;Login&lt;/font&gt;" style="verticalLabelPosition=middle;verticalAlign=middle;html=1;shape=trapezoid;perimeter=trapezoidPerimeter;whiteSpace=wrap;size=0.23;arcSize=10;flipV=1;labelPosition=center;align=center;fillColor=#ffcccc;strokeColor=#36393d;" vertex="1" parent="1">
          <mxGeometry x="580" y="289" width="90" height="40" as="geometry" />
        </mxCell>
        <mxCell id="qGZgHf13u7nG4rTvngTi-22" style="edgeStyle=orthogonalEdgeStyle;rounded=0;orthogonalLoop=1;jettySize=auto;html=1;entryX=0;entryY=0.75;entryDx=0;entryDy=0;" edge="1" parent="1" source="qGZgHf13u7nG4rTvngTi-11" target="qGZgHf13u7nG4rTvngTi-1">
          <mxGeometry relative="1" as="geometry" />
        </mxCell>
        <mxCell id="qGZgHf13u7nG4rTvngTi-11" value="&lt;font style=&quot;font-size: 9px;&quot;&gt;Signup&lt;/font&gt;" style="verticalLabelPosition=middle;verticalAlign=middle;html=1;shape=trapezoid;perimeter=trapezoidPerimeter;whiteSpace=wrap;size=0.23;arcSize=10;flipV=1;labelPosition=center;align=center;fillColor=#ffcccc;strokeColor=#36393d;" vertex="1" parent="1">
          <mxGeometry x="580" y="339" width="90" height="40" as="geometry" />
        </mxCell>
        <mxCell id="qGZgHf13u7nG4rTvngTi-21" style="edgeStyle=orthogonalEdgeStyle;rounded=0;orthogonalLoop=1;jettySize=auto;html=1;entryX=0;entryY=0.75;entryDx=0;entryDy=0;" edge="1" parent="1" source="qGZgHf13u7nG4rTvngTi-12" target="qGZgHf13u7nG4rTvngTi-1">
          <mxGeometry relative="1" as="geometry" />
        </mxCell>
        <mxCell id="qGZgHf13u7nG4rTvngTi-12" value="&lt;font style=&quot;font-size: 9px;&quot;&gt;Add Expenses&lt;/font&gt;" style="verticalLabelPosition=middle;verticalAlign=middle;html=1;shape=trapezoid;perimeter=trapezoidPerimeter;whiteSpace=wrap;size=0.23;arcSize=10;flipV=1;labelPosition=center;align=center;fillColor=#ffcccc;strokeColor=#36393d;" vertex="1" parent="1">
          <mxGeometry x="580" y="389" width="90" height="40" as="geometry" />
        </mxCell>
        <mxCell id="qGZgHf13u7nG4rTvngTi-23" style="edgeStyle=orthogonalEdgeStyle;rounded=0;orthogonalLoop=1;jettySize=auto;html=1;entryX=0;entryY=0.75;entryDx=0;entryDy=0;" edge="1" parent="1" source="qGZgHf13u7nG4rTvngTi-13" target="qGZgHf13u7nG4rTvngTi-1">
          <mxGeometry relative="1" as="geometry" />
        </mxCell>
        <mxCell id="qGZgHf13u7nG4rTvngTi-13" value="&lt;font style=&quot;font-size: 9px;&quot;&gt;Edit/Save&amp;nbsp; &amp;nbsp; Expenses&lt;/font&gt;" style="verticalLabelPosition=middle;verticalAlign=middle;html=1;shape=trapezoid;perimeter=trapezoidPerimeter;whiteSpace=wrap;size=0.23;arcSize=10;flipV=1;labelPosition=center;align=center;fillColor=#ffcccc;strokeColor=#36393d;" vertex="1" parent="1">
          <mxGeometry x="580" y="439" width="90" height="40" as="geometry" />
        </mxCell>
        <mxCell id="qGZgHf13u7nG4rTvngTi-25" style="edgeStyle=orthogonalEdgeStyle;rounded=0;orthogonalLoop=1;jettySize=auto;html=1;entryX=0;entryY=0.75;entryDx=0;entryDy=0;" edge="1" parent="1" source="qGZgHf13u7nG4rTvngTi-24" target="qGZgHf13u7nG4rTvngTi-1">
          <mxGeometry relative="1" as="geometry" />
        </mxCell>
        <mxCell id="qGZgHf13u7nG4rTvngTi-24" value="&lt;font size=&quot;1&quot;&gt;Change Budget View&lt;/font&gt;" style="verticalLabelPosition=middle;verticalAlign=middle;html=1;shape=trapezoid;perimeter=trapezoidPerimeter;whiteSpace=wrap;size=0.23;arcSize=10;flipV=1;labelPosition=center;align=center;fillColor=#ffcccc;strokeColor=#36393d;" vertex="1" parent="1">
          <mxGeometry x="580" y="489" width="90" height="40" as="geometry" />
        </mxCell>
        <mxCell id="qGZgHf13u7nG4rTvngTi-26" value="&lt;h1&gt;Client Actions&lt;/h1&gt;" style="text;html=1;strokeColor=none;fillColor=none;spacing=5;spacingTop=-20;whiteSpace=wrap;overflow=hidden;rounded=0;" vertex="1" parent="1">
          <mxGeometry x="540" y="120" width="170" height="40" as="geometry" />
        </mxCell>
        <mxCell id="qGZgHf13u7nG4rTvngTi-27" value="&lt;h1&gt;Services&lt;/h1&gt;" style="text;html=1;strokeColor=none;fillColor=none;spacing=5;spacingTop=-20;whiteSpace=wrap;overflow=hidden;rounded=0;" vertex="1" parent="1">
          <mxGeometry x="260" y="120" width="110" height="40" as="geometry" />
        </mxCell>
        <mxCell id="qGZgHf13u7nG4rTvngTi-51" style="edgeStyle=orthogonalEdgeStyle;rounded=0;orthogonalLoop=1;jettySize=auto;html=1;entryX=0;entryY=0.775;entryDx=0;entryDy=0;entryPerimeter=0;jumpStyle=line;jumpSize=12;" edge="1" parent="1" source="qGZgHf13u7nG4rTvngTi-47" target="qGZgHf13u7nG4rTvngTi-10">
          <mxGeometry relative="1" as="geometry" />
        </mxCell>
        <mxCell id="qGZgHf13u7nG4rTvngTi-52" style="edgeStyle=orthogonalEdgeStyle;rounded=0;orthogonalLoop=1;jettySize=auto;html=1;entryX=0;entryY=0.775;entryDx=0;entryDy=0;entryPerimeter=0;jumpStyle=line;jumpSize=12;" edge="1" parent="1" source="qGZgHf13u7nG4rTvngTi-47" target="qGZgHf13u7nG4rTvngTi-11">
          <mxGeometry relative="1" as="geometry" />
        </mxCell>
        <mxCell id="qGZgHf13u7nG4rTvngTi-66" style="edgeStyle=orthogonalEdgeStyle;rounded=0;orthogonalLoop=1;jettySize=auto;html=1;entryX=1;entryY=0.5;entryDx=0;entryDy=0;entryPerimeter=0;" edge="1" parent="1" source="qGZgHf13u7nG4rTvngTi-47" target="qGZgHf13u7nG4rTvngTi-63">
          <mxGeometry relative="1" as="geometry" />
        </mxCell>
        <mxCell id="qGZgHf13u7nG4rTvngTi-47" value="&lt;font style=&quot;font-size: 12px;&quot;&gt;User Management&lt;/font&gt;" style="verticalLabelPosition=middle;verticalAlign=middle;html=1;shape=process;whiteSpace=wrap;rounded=1;size=0.14;arcSize=6;fontStyle=1;horizontal=1;labelPosition=center;align=center;fillColor=#ffcc99;strokeColor=#36393d;" vertex="1" parent="1">
          <mxGeometry x="255" y="410" width="115" height="60" as="geometry" />
        </mxCell>
        <mxCell id="qGZgHf13u7nG4rTvngTi-58" style="edgeStyle=orthogonalEdgeStyle;rounded=0;orthogonalLoop=1;jettySize=auto;html=1;entryX=0;entryY=0.75;entryDx=0;entryDy=0;entryPerimeter=0;jumpStyle=line;jumpSize=12;" edge="1" parent="1" source="qGZgHf13u7nG4rTvngTi-48" target="qGZgHf13u7nG4rTvngTi-3">
          <mxGeometry relative="1" as="geometry" />
        </mxCell>
        <mxCell id="qGZgHf13u7nG4rTvngTi-59" style="edgeStyle=orthogonalEdgeStyle;rounded=0;orthogonalLoop=1;jettySize=auto;html=1;entryX=-0.022;entryY=0.825;entryDx=0;entryDy=0;entryPerimeter=0;" edge="1" parent="1" source="qGZgHf13u7nG4rTvngTi-48" target="qGZgHf13u7nG4rTvngTi-9">
          <mxGeometry relative="1" as="geometry" />
        </mxCell>
        <mxCell id="qGZgHf13u7nG4rTvngTi-67" style="edgeStyle=orthogonalEdgeStyle;rounded=0;orthogonalLoop=1;jettySize=auto;html=1;" edge="1" parent="1" source="qGZgHf13u7nG4rTvngTi-48" target="qGZgHf13u7nG4rTvngTi-62">
          <mxGeometry relative="1" as="geometry" />
        </mxCell>
        <mxCell id="qGZgHf13u7nG4rTvngTi-48" value="&lt;font style=&quot;font-size: 12px;&quot;&gt;Transaction History&lt;/font&gt;" style="verticalLabelPosition=middle;verticalAlign=middle;html=1;shape=process;whiteSpace=wrap;rounded=1;size=0.14;arcSize=6;fontStyle=1;horizontal=1;labelPosition=center;align=center;fillColor=#ffcc99;strokeColor=#36393d;" vertex="1" parent="1">
          <mxGeometry x="257.5" y="180" width="115" height="60" as="geometry" />
        </mxCell>
        <mxCell id="qGZgHf13u7nG4rTvngTi-56" style="edgeStyle=orthogonalEdgeStyle;rounded=0;orthogonalLoop=1;jettySize=auto;html=1;entryX=0;entryY=0.75;entryDx=0;entryDy=0;entryPerimeter=0;jumpStyle=line;jumpSize=12;" edge="1" parent="1" source="qGZgHf13u7nG4rTvngTi-49" target="qGZgHf13u7nG4rTvngTi-13">
          <mxGeometry relative="1" as="geometry" />
        </mxCell>
        <mxCell id="qGZgHf13u7nG4rTvngTi-60" style="edgeStyle=orthogonalEdgeStyle;rounded=0;orthogonalLoop=1;jettySize=auto;html=1;entryX=0;entryY=0.75;entryDx=0;entryDy=0;entryPerimeter=0;" edge="1" parent="1" source="qGZgHf13u7nG4rTvngTi-49" target="qGZgHf13u7nG4rTvngTi-24">
          <mxGeometry relative="1" as="geometry" />
        </mxCell>
        <mxCell id="qGZgHf13u7nG4rTvngTi-65" style="edgeStyle=orthogonalEdgeStyle;rounded=0;orthogonalLoop=1;jettySize=auto;html=1;" edge="1" parent="1" source="qGZgHf13u7nG4rTvngTi-49" target="qGZgHf13u7nG4rTvngTi-64">
          <mxGeometry relative="1" as="geometry" />
        </mxCell>
        <mxCell id="qGZgHf13u7nG4rTvngTi-108" style="edgeStyle=orthogonalEdgeStyle;rounded=0;orthogonalLoop=1;jettySize=auto;html=1;entryX=0;entryY=0.725;entryDx=0;entryDy=0;entryPerimeter=0;jumpStyle=gap;jumpSize=6;" edge="1" parent="1" source="qGZgHf13u7nG4rTvngTi-49" target="qGZgHf13u7nG4rTvngTi-12">
          <mxGeometry relative="1" as="geometry" />
        </mxCell>
        <mxCell id="qGZgHf13u7nG4rTvngTi-49" value="&lt;font style=&quot;font-size: 12px;&quot;&gt;Budgeting&lt;/font&gt;" style="verticalLabelPosition=middle;verticalAlign=middle;html=1;shape=process;whiteSpace=wrap;rounded=1;size=0.14;arcSize=6;fontStyle=1;horizontal=1;labelPosition=center;align=center;fillColor=#ffcc99;strokeColor=#36393d;" vertex="1" parent="1">
          <mxGeometry x="242.5" y="670" width="115" height="60" as="geometry" />
        </mxCell>
        <UserObject label="Transaction" tooltip="SQL - Postgresql" id="qGZgHf13u7nG4rTvngTi-62">
          <mxCell style="strokeWidth=2;html=1;shape=mxgraph.flowchart.database;whiteSpace=wrap;fillColor=#eeeeee;strokeColor=#36393d;" vertex="1" parent="1">
            <mxGeometry x="70" y="180" width="70" height="60" as="geometry" />
          </mxCell>
        </UserObject>
        <UserObject label="User" tooltip="SQL - Postgresql" id="qGZgHf13u7nG4rTvngTi-63">
          <mxCell style="strokeWidth=2;html=1;shape=mxgraph.flowchart.database;whiteSpace=wrap;fillColor=#eeeeee;strokeColor=#36393d;" vertex="1" parent="1">
            <mxGeometry x="70" y="279" width="70" height="60" as="geometry" />
          </mxCell>
        </UserObject>
        <UserObject label="Budget" tooltip="SQL - Postgresql" id="qGZgHf13u7nG4rTvngTi-64">
          <mxCell style="strokeWidth=2;html=1;shape=mxgraph.flowchart.database;whiteSpace=wrap;fillColor=#eeeeee;strokeColor=#36393d;" vertex="1" parent="1">
            <mxGeometry x="70" y="369" width="70" height="60" as="geometry" />
          </mxCell>
        </UserObject>
        <mxCell id="qGZgHf13u7nG4rTvngTi-68" value="&lt;h1&gt;Datastore&lt;/h1&gt;" style="text;html=1;strokeColor=none;fillColor=none;spacing=5;spacingTop=-20;whiteSpace=wrap;overflow=hidden;rounded=0;" vertex="1" parent="1">
          <mxGeometry x="55" y="120" width="120" height="40" as="geometry" />
        </mxCell>
        <mxCell id="qGZgHf13u7nG4rTvngTi-83" style="edgeStyle=orthogonalEdgeStyle;rounded=0;orthogonalLoop=1;jettySize=auto;html=1;entryX=0.5;entryY=1;entryDx=0;entryDy=0;" edge="1" parent="1" source="qGZgHf13u7nG4rTvngTi-79" target="qGZgHf13u7nG4rTvngTi-49">
          <mxGeometry relative="1" as="geometry" />
        </mxCell>
        <mxCell id="qGZgHf13u7nG4rTvngTi-79" value="Components" style="swimlane;fontStyle=0;childLayout=stackLayout;horizontal=1;startSize=26;fillColor=#cce5ff;horizontalStack=0;resizeParent=1;resizeParentMax=0;resizeLast=0;collapsible=1;marginBottom=0;whiteSpace=wrap;html=1;strokeColor=#36393d;" vertex="1" parent="1">
          <mxGeometry x="160" y="760" width="120" height="52" as="geometry">
            <mxRectangle x="260" y="480" width="110" height="30" as="alternateBounds" />
          </mxGeometry>
        </mxCell>
        <mxCell id="qGZgHf13u7nG4rTvngTi-80" value="Expenses" style="text;strokeColor=#36393d;fillColor=#cdeb8b;align=left;verticalAlign=top;spacingLeft=4;spacingRight=4;overflow=hidden;rotatable=0;points=[[0,0.5],[1,0.5]];portConstraint=eastwest;whiteSpace=wrap;html=1;" vertex="1" parent="qGZgHf13u7nG4rTvngTi-79">
          <mxGeometry y="26" width="120" height="26" as="geometry" />
        </mxCell>
        <mxCell id="qGZgHf13u7nG4rTvngTi-90" style="edgeStyle=orthogonalEdgeStyle;rounded=0;orthogonalLoop=1;jettySize=auto;html=1;entryX=0.5;entryY=1;entryDx=0;entryDy=0;" edge="1" parent="1" source="qGZgHf13u7nG4rTvngTi-87" target="qGZgHf13u7nG4rTvngTi-47">
          <mxGeometry relative="1" as="geometry" />
        </mxCell>
        <mxCell id="qGZgHf13u7nG4rTvngTi-87" value="Components" style="swimlane;fontStyle=0;childLayout=stackLayout;horizontal=1;startSize=26;fillColor=#cce5ff;horizontalStack=0;resizeParent=1;resizeParentMax=0;resizeLast=0;collapsible=1;marginBottom=0;whiteSpace=wrap;html=1;strokeColor=#36393d;" vertex="1" parent="1">
          <mxGeometry x="175" y="512" width="120" height="78" as="geometry">
            <mxRectangle x="260" y="480" width="110" height="30" as="alternateBounds" />
          </mxGeometry>
        </mxCell>
        <mxCell id="qGZgHf13u7nG4rTvngTi-88" value="Profiles" style="text;strokeColor=#36393d;fillColor=#cdeb8b;align=left;verticalAlign=top;spacingLeft=4;spacingRight=4;overflow=hidden;rotatable=0;points=[[0,0.5],[1,0.5]];portConstraint=eastwest;whiteSpace=wrap;html=1;" vertex="1" parent="qGZgHf13u7nG4rTvngTi-87">
          <mxGeometry y="26" width="120" height="26" as="geometry" />
        </mxCell>
        <mxCell id="qGZgHf13u7nG4rTvngTi-89" value="Tokens" style="text;strokeColor=#36393d;fillColor=#cdeb8b;align=left;verticalAlign=top;spacingLeft=4;spacingRight=4;overflow=hidden;rotatable=0;points=[[0,0.5],[1,0.5]];portConstraint=eastwest;whiteSpace=wrap;html=1;" vertex="1" parent="qGZgHf13u7nG4rTvngTi-87">
          <mxGeometry y="52" width="120" height="26" as="geometry" />
        </mxCell>
        <mxCell id="qGZgHf13u7nG4rTvngTi-95" style="edgeStyle=orthogonalEdgeStyle;rounded=0;orthogonalLoop=1;jettySize=auto;html=1;entryX=0.5;entryY=1;entryDx=0;entryDy=0;" edge="1" parent="1" source="qGZgHf13u7nG4rTvngTi-91" target="qGZgHf13u7nG4rTvngTi-48">
          <mxGeometry relative="1" as="geometry" />
        </mxCell>
        <mxCell id="qGZgHf13u7nG4rTvngTi-91" value="Components" style="swimlane;fontStyle=0;childLayout=stackLayout;horizontal=1;startSize=26;horizontalStack=0;resizeParent=1;resizeParentMax=0;resizeLast=0;collapsible=1;marginBottom=0;whiteSpace=wrap;html=1;fillColor=#cce5ff;strokeColor=#36393d;" vertex="1" parent="1">
          <mxGeometry x="200" y="279" width="120" height="78" as="geometry">
            <mxRectangle x="260" y="480" width="110" height="30" as="alternateBounds" />
          </mxGeometry>
        </mxCell>
        <mxCell id="qGZgHf13u7nG4rTvngTi-92" value="Transactions" style="text;strokeColor=#36393d;fillColor=#cdeb8b;align=left;verticalAlign=top;spacingLeft=4;spacingRight=4;overflow=hidden;rotatable=0;points=[[0,0.5],[1,0.5]];portConstraint=eastwest;whiteSpace=wrap;html=1;" vertex="1" parent="qGZgHf13u7nG4rTvngTi-91">
          <mxGeometry y="26" width="120" height="26" as="geometry" />
        </mxCell>
        <mxCell id="qGZgHf13u7nG4rTvngTi-93" value="Accounts" style="text;strokeColor=#36393d;fillColor=#cdeb8b;align=left;verticalAlign=top;spacingLeft=4;spacingRight=4;overflow=hidden;rotatable=0;points=[[0,0.5],[1,0.5]];portConstraint=eastwest;whiteSpace=wrap;html=1;" vertex="1" parent="qGZgHf13u7nG4rTvngTi-91">
          <mxGeometry y="52" width="120" height="26" as="geometry" />
        </mxCell>
        <mxCell id="qGZgHf13u7nG4rTvngTi-99" style="edgeStyle=orthogonalEdgeStyle;rounded=0;orthogonalLoop=1;jettySize=auto;html=1;entryX=0.5;entryY=1;entryDx=0;entryDy=0;" edge="1" parent="1" source="qGZgHf13u7nG4rTvngTi-96" target="qGZgHf13u7nG4rTvngTi-48">
          <mxGeometry relative="1" as="geometry" />
        </mxCell>
        <UserObject label="Features" tooltip="Protocol&#xa;- HTTP&#xa;Design Pattern&#xa;- REST API" id="qGZgHf13u7nG4rTvngTi-96">
          <mxCell style="swimlane;fontStyle=0;childLayout=stackLayout;horizontal=1;startSize=26;fillColor=#cce5ff;horizontalStack=0;resizeParent=1;resizeParentMax=0;resizeLast=0;collapsible=1;marginBottom=0;whiteSpace=wrap;html=1;rounded=1;strokeColor=#36393d;" vertex="1" parent="1">
            <mxGeometry x="330" y="279" width="120" height="104" as="geometry">
              <mxRectangle x="260" y="480" width="110" height="30" as="alternateBounds" />
            </mxGeometry>
          </mxCell>
        </UserObject>
        <mxCell id="qGZgHf13u7nG4rTvngTi-97" value="Create Transaction" style="text;strokeColor=#36393d;fillColor=#cdeb8b;align=left;verticalAlign=top;spacingLeft=4;spacingRight=4;overflow=hidden;rotatable=0;points=[[0,0.5],[1,0.5]];portConstraint=eastwest;whiteSpace=wrap;html=1;" vertex="1" parent="qGZgHf13u7nG4rTvngTi-96">
          <mxGeometry y="26" width="120" height="26" as="geometry" />
        </mxCell>
        <mxCell id="qGZgHf13u7nG4rTvngTi-98" value="Get Transaction" style="text;strokeColor=#36393d;fillColor=#cdeb8b;align=left;verticalAlign=top;spacingLeft=4;spacingRight=4;overflow=hidden;rotatable=0;points=[[0,0.5],[1,0.5]];portConstraint=eastwest;whiteSpace=wrap;html=1;" vertex="1" parent="qGZgHf13u7nG4rTvngTi-96">
          <mxGeometry y="52" width="120" height="26" as="geometry" />
        </mxCell>
        <mxCell id="qGZgHf13u7nG4rTvngTi-100" value="Create Account" style="text;strokeColor=#36393d;fillColor=#cdeb8b;align=left;verticalAlign=top;spacingLeft=4;spacingRight=4;overflow=hidden;rotatable=0;points=[[0,0.5],[1,0.5]];portConstraint=eastwest;whiteSpace=wrap;html=1;" vertex="1" parent="qGZgHf13u7nG4rTvngTi-96">
          <mxGeometry y="78" width="120" height="26" as="geometry" />
        </mxCell>
        <mxCell id="qGZgHf13u7nG4rTvngTi-106" style="edgeStyle=orthogonalEdgeStyle;rounded=0;orthogonalLoop=1;jettySize=auto;html=1;exitX=0.5;exitY=0;exitDx=0;exitDy=0;" edge="1" parent="1" source="qGZgHf13u7nG4rTvngTi-101" target="qGZgHf13u7nG4rTvngTi-47">
          <mxGeometry relative="1" as="geometry">
            <mxPoint x="335" y="517" as="targetPoint" />
            <mxPoint x="385" y="512" as="sourcePoint" />
          </mxGeometry>
        </mxCell>
        <UserObject label="Features" tooltip="Protocol&#xa;- HTTP&#xa;Design Pattern&#xa;- REST API" id="qGZgHf13u7nG4rTvngTi-101">
          <mxCell style="swimlane;fontStyle=0;childLayout=stackLayout;horizontal=1;startSize=26;fillColor=#cce5ff;horizontalStack=0;resizeParent=1;resizeParentMax=0;resizeLast=0;collapsible=1;marginBottom=0;whiteSpace=wrap;html=1;swimlaneLine=1;glass=0;rounded=1;strokeColor=#36393d;" vertex="1" parent="1">
            <mxGeometry x="310" y="512" width="120" height="130" as="geometry">
              <mxRectangle x="260" y="480" width="110" height="30" as="alternateBounds" />
            </mxGeometry>
          </mxCell>
        </UserObject>
        <mxCell id="qGZgHf13u7nG4rTvngTi-102" value="Create Profile" style="text;strokeColor=#36393d;fillColor=#cdeb8b;align=left;verticalAlign=top;spacingLeft=4;spacingRight=4;overflow=hidden;rotatable=0;points=[[0,0.5],[1,0.5]];portConstraint=eastwest;whiteSpace=wrap;html=1;rounded=0;glass=0;shadow=0;" vertex="1" parent="qGZgHf13u7nG4rTvngTi-101">
          <mxGeometry y="26" width="120" height="26" as="geometry" />
        </mxCell>
        <mxCell id="qGZgHf13u7nG4rTvngTi-103" value="Get Profile" style="text;strokeColor=#36393d;fillColor=#cdeb8b;align=left;verticalAlign=top;spacingLeft=4;spacingRight=4;overflow=hidden;rotatable=0;points=[[0,0.5],[1,0.5]];portConstraint=eastwest;whiteSpace=wrap;html=1;" vertex="1" parent="qGZgHf13u7nG4rTvngTi-101">
          <mxGeometry y="52" width="120" height="26" as="geometry" />
        </mxCell>
        <mxCell id="qGZgHf13u7nG4rTvngTi-104" value="Create Token" style="text;strokeColor=#36393d;fillColor=#cdeb8b;align=left;verticalAlign=top;spacingLeft=4;spacingRight=4;overflow=hidden;rotatable=0;points=[[0,0.5],[1,0.5]];portConstraint=eastwest;whiteSpace=wrap;html=1;" vertex="1" parent="qGZgHf13u7nG4rTvngTi-101">
          <mxGeometry y="78" width="120" height="26" as="geometry" />
        </mxCell>
        <mxCell id="qGZgHf13u7nG4rTvngTi-109" value="Get Token" style="text;strokeColor=#36393d;fillColor=#cdeb8b;align=left;verticalAlign=top;spacingLeft=4;spacingRight=4;overflow=hidden;rotatable=0;points=[[0,0.5],[1,0.5]];portConstraint=eastwest;whiteSpace=wrap;html=1;" vertex="1" parent="qGZgHf13u7nG4rTvngTi-101">
          <mxGeometry y="104" width="120" height="26" as="geometry" />
        </mxCell>
        <mxCell id="qGZgHf13u7nG4rTvngTi-115" style="edgeStyle=orthogonalEdgeStyle;rounded=0;orthogonalLoop=1;jettySize=auto;html=1;entryX=0.5;entryY=1;entryDx=0;entryDy=0;" edge="1" parent="1" source="qGZgHf13u7nG4rTvngTi-110" target="qGZgHf13u7nG4rTvngTi-49">
          <mxGeometry relative="1" as="geometry" />
        </mxCell>
        <UserObject label="Features" tooltip="Protocol&#xa;- HTTP&#xa;Design Pattern&#xa;- REST API" id="qGZgHf13u7nG4rTvngTi-110">
          <mxCell style="swimlane;fontStyle=0;childLayout=stackLayout;horizontal=1;startSize=26;fillColor=#cce5ff;horizontalStack=0;resizeParent=1;resizeParentMax=0;resizeLast=0;collapsible=1;marginBottom=0;whiteSpace=wrap;html=1;rounded=1;strokeColor=#36393d;" vertex="1" parent="1">
            <mxGeometry x="305" y="760" width="120" height="104" as="geometry">
              <mxRectangle x="320" y="750" width="110" height="30" as="alternateBounds" />
            </mxGeometry>
          </mxCell>
        </UserObject>
        <mxCell id="qGZgHf13u7nG4rTvngTi-111" value="Create Expense" style="text;strokeColor=#36393d;fillColor=#cdeb8b;align=left;verticalAlign=top;spacingLeft=4;spacingRight=4;overflow=hidden;rotatable=0;points=[[0,0.5],[1,0.5]];portConstraint=eastwest;whiteSpace=wrap;html=1;" vertex="1" parent="qGZgHf13u7nG4rTvngTi-110">
          <mxGeometry y="26" width="120" height="26" as="geometry" />
        </mxCell>
        <mxCell id="qGZgHf13u7nG4rTvngTi-112" value="Get Expense" style="text;strokeColor=#36393d;fillColor=#cdeb8b;align=left;verticalAlign=top;spacingLeft=4;spacingRight=4;overflow=hidden;rotatable=0;points=[[0,0.5],[1,0.5]];portConstraint=eastwest;whiteSpace=wrap;html=1;" vertex="1" parent="qGZgHf13u7nG4rTvngTi-110">
          <mxGeometry y="52" width="120" height="26" as="geometry" />
        </mxCell>
        <mxCell id="qGZgHf13u7nG4rTvngTi-116" value="Update Expense" style="text;strokeColor=#36393d;fillColor=#cdeb8b;align=left;verticalAlign=top;spacingLeft=4;spacingRight=4;overflow=hidden;rotatable=0;points=[[0,0.5],[1,0.5]];portConstraint=eastwest;whiteSpace=wrap;html=1;" vertex="1" parent="qGZgHf13u7nG4rTvngTi-110">
          <mxGeometry y="78" width="120" height="26" as="geometry" />
        </mxCell>
      </root>
    </mxGraphModel>
  </diagram>
</mxfile>
